<svg width="44" height="31" viewBox="0 0 44 31" fill="none" xmlns="http://www.w3.org/2000/svg">
<path d="M9.47 24.26V2.72H7.19C6.25 2.72 5.55 2.93 5.09 3.35C4.63 3.75 4.4 4.23 4.4 4.79C4.4 5.35 4.54 5.81 4.82 6.17C5.1 6.51 5.47 6.68 5.93 6.68C6.41 6.68 6.76 6.57 6.98 6.35C7.2 6.13 7.37 5.92 7.49 5.72C7.61 5.5 7.73 5.39 7.85 5.39C7.97 5.39 8.03 5.54 8.03 5.84C8.03 6.14 7.8 6.46 7.34 6.8C6.9 7.12 6.38 7.28 5.78 7.28C5.18 7.28 4.7 7.05 4.34 6.59C3.98 6.13 3.8 5.56 3.8 4.88C3.8 4.18 4.09 3.55 4.67 2.99C5.27 2.41 6.12 2.12 7.22 2.12H12.47V23.48C12.47 24.7 12.26 25.78 11.84 26.72C11.42 27.66 10.87 28.4 10.19 28.94C8.85 29.98 7.43 30.5 5.93 30.5C4.45 30.5 3.2 30.02 2.18 29.06C1.18 28.1 0.68 27.03 0.68 25.85C0.68 25.05 0.93 24.39 1.43 23.87C1.91 23.37 2.38 23.12 2.84 23.12C3.3 23.12 3.67 23.21 3.95 23.39C4.25 23.57 4.4 23.77 4.4 23.99C4.4 24.21 4.35 24.32 4.25 24.32C4.17 24.32 4.04 24.22 3.86 24.02C3.7 23.82 3.37 23.72 2.87 23.72C2.39 23.72 2 23.93 1.7 24.35C1.38 24.79 1.22 25.31 1.22 25.91C1.22 27.01 1.71 27.95 2.69 28.73C3.67 29.53 4.57 29.93 5.39 29.93C5.79 29.93 6.11 29.92 6.35 29.9C6.59 29.88 6.93 29.77 7.37 29.57C7.81 29.37 8.16 29.08 8.42 28.7C8.7 28.34 8.94 27.78 9.14 27.02C9.36 26.26 9.47 25.34 9.47 24.26ZM23.1901 17.06L23.2201 2.72H20.8501C19.9101 2.72 19.2101 2.93 18.7501 3.35C18.2901 3.75 18.0601 4.23 18.0601 4.79C18.0601 5.33 18.2001 5.78 18.4801 6.14C18.7601 6.5 19.1301 6.68 19.5901 6.68C20.0701 6.68 20.4201 6.57 20.6401 6.35C20.8601 6.13 21.0301 5.92 21.1501 5.72C21.2701 5.5 21.3901 5.39 21.5101 5.39C21.6301 5.39 21.6901 5.54 21.6901 5.84C21.6901 6.14 21.4601 6.46 21.0001 6.8C20.5601 7.12 20.0401 7.28 19.4401 7.28C18.8401 7.28 18.3601 7.05 18.0001 6.59C17.6401 6.13 17.4601 5.56 17.4601 4.88C17.4601 4.18 17.7501 3.55 18.3301 2.99C18.9301 2.41 19.7801 2.12 20.8801 2.12H26.1001L33.9901 15.95V7.7C33.9901 2.98 35.6201 0.619998 38.8801 0.619998C40.1001 0.619998 41.1501 0.999999 42.0301 1.76C42.9301 2.52 43.3801 3.46 43.3801 4.58C43.3801 5.68 43.1101 6.46 42.5701 6.92C42.0501 7.36 41.5801 7.58 41.1601 7.58C40.7601 7.58 40.4101 7.49 40.1101 7.31C39.8101 7.13 39.6601 6.93 39.6601 6.71C39.6601 6.49 39.7101 6.38 39.8101 6.38C39.9101 6.38 39.9801 6.42 40.0201 6.5C40.0801 6.56 40.1301 6.62 40.1701 6.68C40.3301 6.9 40.6501 7.01 41.1301 7.01C41.6101 7.01 42.0001 6.79 42.3001 6.35C42.6201 5.91 42.7801 5.36 42.7801 4.7C42.7801 3.64 42.4101 2.8 41.6701 2.18C40.9501 1.54 40.0801 1.22 39.0601 1.22C38.4401 1.22 37.9001 1.3 37.4401 1.46C36.9801 1.6 36.5201 1.88 36.0601 2.3C35.1201 3.12 34.6501 4.9 34.6501 7.64V22.85C34.6501 23.07 34.5501 23.18 34.3501 23.18C34.2301 23.18 34.1001 23.05 33.9601 22.79L23.8201 3.89V16.28C23.8201 18.54 23.3301 20.26 22.3501 21.44C21.3901 22.6 20.2601 23.18 18.9601 23.18C17.6601 23.18 16.5601 22.8 15.6601 22.04C14.7801 21.28 14.3401 20.35 14.3401 19.25C14.3401 18.13 14.6101 17.35 15.1501 16.91C15.6701 16.45 16.1301 16.22 16.5301 16.22C16.9501 16.22 17.3101 16.31 17.6101 16.49C17.9101 16.67 18.0601 16.87 18.0601 17.09C18.0601 17.31 18.0101 17.42 17.9101 17.42C17.8101 17.42 17.7301 17.39 17.6701 17.33C17.6301 17.27 17.5901 17.2 17.5501 17.12C17.4101 16.92 17.0801 16.82 16.5601 16.82C16.0601 16.82 15.6601 17.04 15.3601 17.48C15.0601 17.9 14.9101 18.44 14.9101 19.1C14.9101 20.18 15.3001 21.04 16.0801 21.68C16.8801 22.3 17.8201 22.61 18.9001 22.61C19.9801 22.61 20.9601 22.11 21.8401 21.11C22.7401 20.11 23.1901 18.76 23.1901 17.06Z" fill="black"/>
</svg>
