<svg width="56" height="21" viewBox="0 0 56 21" fill="none" xmlns="http://www.w3.org/2000/svg">
<path d="M3.14551 13.4043C3.47754 14.6445 4.1123 15.5576 5.0498 16.1436C5.99707 16.7295 7.21289 17.0225 8.69727 17.0225C9.17578 17.0225 9.625 16.9785 10.0449 16.8906C10.4648 16.793 10.8408 16.6514 11.1729 16.4658C11.5146 16.2705 11.8027 16.0264 12.0371 15.7334C12.2812 15.4404 12.4619 15.0938 12.5791 14.6934C12.667 14.3613 12.7305 13.9316 12.7695 13.4043C12.8086 12.877 12.8281 12.1738 12.8281 11.2949V3.10645H5.84082V0.762695H19.8154V3.10645H16.1533V11.4121C16.1533 12.291 16.1191 13.0527 16.0508 13.6973C15.9824 14.332 15.8799 14.8545 15.7432 15.2646C15.5088 15.9873 15.1768 16.6123 14.7471 17.1396C14.3174 17.6572 13.7949 18.0869 13.1797 18.4287C12.5742 18.7705 11.8809 19.0244 11.0996 19.1904C10.3281 19.3564 9.4834 19.4395 8.56543 19.4395C7.31543 19.4395 6.22656 19.332 5.29883 19.1172C4.37109 18.9023 3.5752 18.585 2.91113 18.165C2.24707 17.7451 1.7002 17.2275 1.27051 16.6123C0.84082 15.9971 0.503906 15.2939 0.259766 14.5029L3.14551 13.4043ZM1.97363 18.6631C2.8916 19.249 3.88281 19.6836 4.94727 19.9668C6.01172 20.25 7.22754 20.3916 8.59473 20.3916C9.56152 20.3916 10.4795 20.2988 11.3486 20.1133C12.2275 19.9277 13.0234 19.6348 13.7363 19.2344C14.4492 18.8438 15.0693 18.3408 15.5967 17.7256C16.124 17.1006 16.5293 16.3535 16.8125 15.4844C16.9395 15.0449 17.0371 14.5078 17.1055 13.873C17.1738 13.2285 17.208 12.4082 17.208 11.4121V4.13184H20.8701V1.49512H21.4561V4.68848H17.7939V11.4561C17.7939 12.4814 17.7598 13.3311 17.6914 14.0049C17.623 14.6689 17.5107 15.25 17.3545 15.748C17.0615 16.6172 16.6416 17.3789 16.0947 18.0332C15.5479 18.6875 14.9033 19.2295 14.1611 19.6592C13.4189 20.0889 12.5938 20.4111 11.6855 20.626C10.7773 20.8408 9.81543 20.9482 8.7998 20.9482C7.98926 20.9482 7.24707 20.8994 6.57324 20.8018C5.90918 20.7139 5.29883 20.5771 4.74219 20.3916C4.18555 20.2061 3.67773 19.9668 3.21875 19.6738C2.76953 19.3906 2.35449 19.0537 1.97363 18.6631ZM6.71973 4.13184H12.2129V4.68848H6.71973V4.13184ZM5.09375 13.8291C5.2207 14.1025 5.38184 14.3564 5.57715 14.5908C5.77246 14.8154 5.98242 15.0205 6.20703 15.2061C6.44141 15.3916 6.68066 15.5527 6.9248 15.6895C7.16895 15.8164 7.4082 15.9189 7.64258 15.9971C6.87109 15.9092 6.22656 15.6943 5.70898 15.3525C5.19141 15.001 4.80078 14.5615 4.53711 14.0342L5.09375 13.8291ZM25.0449 16.6562H28.707V3.10645H24.752V0.762695H33.3213L46.1387 14.0488V3.10645H42.1836V0.762695H53.3896V3.10645H49.4346V19H46.2852L32.0029 3.88281V16.6562H35.958V19H25.0449V16.6562ZM50.4893 20.0254V4.13184H54.4443V1.49512H55.0303V4.68848H51.0752V20.582H47.1641V20.0254H50.4893ZM36.1484 1.49512L45.5674 10.9873V11.8369L35.3721 1.49512H36.1484ZM43.0625 4.13184H45.5234V4.68848H43.0625V4.13184ZM25.6309 4.13184L28.0918 4.68848H25.6309V4.13184ZM33.0576 5.875L33.6436 6.51953V15.7773H33.0576V5.875ZM37.0127 20.0254V17.4766H37.5986V20.582H25.9238V20.0254H37.0127Z" fill="black"/>
</svg>
