<svg width="52" height="31" viewBox="0 0 52 31" fill="none" xmlns="http://www.w3.org/2000/svg">
<path d="M8.7 30.41C7.56 30.41 6.46 30.2 5.4 29.78C3.94 29.2 2.82 28.35 2.04 27.23C1.24 26.13 0.84 24.89 0.84 23.51C0.84 22.67 0.99 21.8 1.29 20.9C1.59 20.06 2.05 19.33 2.67 18.71C3.27 18.07 3.97 17.57 4.77 17.21C5.59 16.85 6.43 16.67 7.29 16.67C8.11 16.67 8.87 16.83 9.57 17.15C9.79 17.23 10.08 17.39 10.44 17.63C10.8 17.85 11.05 18.06 11.19 18.26C11.33 18.42 11.44 18.57 11.52 18.71C11.6 18.85 11.68 19.02 11.76 19.22C11.8 19.34 11.85 19.54 11.91 19.82C11.99 20.1 12.03 20.38 12.03 20.66C12.03 20.96 11.97 21.23 11.85 21.47C11.75 21.71 11.56 21.83 11.28 21.83C10.96 21.83 10.77 21.7 10.71 21.44C10.65 21.18 10.62 20.89 10.62 20.57C10.64 20.23 10.61 19.98 10.53 19.82C10.49 19.72 10.43 19.63 10.35 19.55C10.29 19.45 10.22 19.36 10.14 19.28C9.78 18.88 9.37 18.59 8.91 18.41C8.45 18.23 7.97 18.14 7.47 18.14C6.81 18.14 6.15 18.28 5.49 18.56C4.85 18.82 4.28 19.2 3.78 19.7C3.28 20.2 2.92 20.78 2.7 21.44C2.46 22.18 2.34 22.87 2.34 23.51C2.34 24.61 2.65 25.57 3.27 26.39C3.89 27.21 4.71 27.84 5.73 28.28C6.75 28.74 7.86 28.97 9.06 28.97C10.48 28.97 11.71 28.61 12.75 27.89C13.79 27.19 14.67 26.24 15.39 25.04C16.11 23.84 16.7 22.5 17.16 21.02C17.62 19.54 17.97 18.02 18.21 16.46C18.47 14.9 18.64 13.41 18.72 11.99C18.82 10.55 18.87 9.29 18.87 8.21C18.87 7.47 18.94 6.69 19.08 5.87C19.22 5.05 19.46 4.28 19.8 3.56C18.62 3.94 17.52 4.55 16.5 5.39C15.48 6.23 14.71 7.21 14.19 8.33C14.05 8.63 13.94 8.91 13.86 9.17C13.78 9.41 13.74 9.7 13.74 10.04C13.74 10.48 13.84 10.82 14.04 11.06C14.26 11.28 14.52 11.43 14.82 11.51C15.12 11.57 15.38 11.6 15.6 11.6C15.74 11.6 15.85 11.6 15.93 11.6C16.01 11.58 16.05 11.57 16.05 11.57L16.08 11.54C16.16 11.46 16.28 11.4 16.44 11.36C16.6 11.3 16.72 11.26 16.8 11.24C16.86 11.22 16.92 11.21 16.98 11.21C17.04 11.21 17.09 11.21 17.13 11.21C17.35 11.21 17.51 11.27 17.61 11.39C17.73 11.51 17.79 11.65 17.79 11.81C17.79 11.97 17.74 12.14 17.64 12.32C17.54 12.48 17.39 12.61 17.19 12.71C16.65 12.95 16.09 13.07 15.51 13.07C14.67 13.07 13.92 12.81 13.26 12.29C12.62 11.75 12.29 10.97 12.27 9.95C12.27 9.51 12.32 9.11 12.42 8.75C12.54 8.39 12.7 8.02 12.9 7.64C13.68 6.1 14.81 4.81 16.29 3.77C17.79 2.73 19.39 2.07 21.09 1.79C21.27 1.63 21.52 1.45 21.84 1.25C22.16 1.03 22.43 0.889999 22.65 0.829999C22.73 0.81 22.8 0.8 22.86 0.8C22.94 0.779999 23.02 0.769998 23.1 0.769998C23.46 0.769998 23.73 0.889999 23.91 1.13C24.09 1.35 24.18 1.6 24.18 1.88C24.18 2.14 24.1 2.4 23.94 2.66C23.78 2.9 23.53 3.04 23.19 3.08L22.8 3.14C22.66 3.16 22.55 3.17 22.47 3.17C22.39 3.15 22.29 3.14 22.17 3.14C22.11 3.14 22.05 3.14 21.99 3.14C21.93 3.14 21.87 3.15 21.81 3.17C21.25 3.81 20.86 4.62 20.64 5.6C20.44 6.56 20.34 7.43 20.34 8.21C20.34 9.51 20.29 10.96 20.19 12.56C20.09 14.16 19.89 15.8 19.59 17.48C19.31 19.16 18.89 20.78 18.33 22.34C17.77 23.9 17.04 25.3 16.14 26.54C15.26 27.78 14.16 28.74 12.84 29.42C11.56 30.08 10.18 30.41 8.7 30.41ZM50.8519 25.25C50.2319 25.25 49.7319 25.06 49.3519 24.68C48.9719 24.3 48.7019 23.84 48.5419 23.3C48.3819 22.78 48.3019 22.3 48.3019 21.86C48.3019 21.24 48.3219 20.62 48.3619 20C48.4219 19.38 48.4919 18.76 48.5719 18.14C48.6719 17.12 48.7919 16.11 48.9319 15.11C49.0719 14.09 49.2019 13.07 49.3219 12.05C49.4019 11.45 49.4619 10.84 49.5019 10.22C49.5619 9.6 49.5919 8.98 49.5919 8.36C49.5919 7.26 49.4419 6.26 49.1419 5.36C48.8619 4.44 48.3819 3.71 47.7019 3.17C47.0219 2.61 46.0819 2.33 44.8819 2.33C44.1619 2.33 43.4819 2.6 42.8419 3.14C42.2019 3.68 41.6119 4.38 41.0719 5.24C40.5319 6.1 40.0319 7.03 39.5719 8.03C39.1319 9.01 38.7519 9.95 38.4319 10.85C38.4919 11.91 38.5719 12.96 38.6719 14C38.7719 15.04 38.8519 16.09 38.9119 17.15C38.9319 17.37 38.9419 17.64 38.9419 17.96C38.9619 18.28 38.9719 18.63 38.9719 19.01C38.9719 19.69 38.9219 20.39 38.8219 21.11C38.7219 21.81 38.5219 22.4 38.2219 22.88C37.9219 23.36 37.4619 23.6 36.8419 23.6C36.1019 23.6 35.5919 23.28 35.3119 22.64C35.0519 22 34.9219 21.26 34.9219 20.42C34.9219 19.54 35.0019 18.67 35.1619 17.81C35.3219 16.93 35.4419 16.3 35.5219 15.92C35.7219 14.96 35.9319 14 36.1519 13.04C36.3719 12.08 36.6319 11.14 36.9319 10.22L36.8719 9.29C36.7919 7.91 36.4919 6.67 35.9719 5.57C35.4719 4.47 34.7319 3.6 33.7519 2.96C32.7919 2.32 31.5819 2 30.1219 2C29.7619 2 29.3919 2.06 29.0119 2.18C28.6319 2.28 28.2819 2.42 27.9619 2.6C26.9819 3.16 26.2419 3.91 25.7419 4.85C25.2419 5.77 24.9919 6.81 24.9919 7.97C24.9919 8.89 25.1819 9.74 25.5619 10.52C25.9419 11.28 26.4819 11.9 27.1819 12.38C27.8819 12.84 28.7219 13.07 29.7019 13.07C30.4819 13.07 31.1719 12.92 31.7719 12.62C32.4119 12.28 32.8619 11.87 33.1219 11.39C33.4019 10.89 33.5419 10.38 33.5419 9.86C33.5419 9.32 33.4219 8.82 33.1819 8.36C32.9619 7.88 32.6619 7.5 32.2819 7.22C31.9019 6.92 31.4819 6.77 31.0219 6.77C30.9619 6.77 30.8919 6.77 30.8119 6.77C30.7519 6.77 30.6919 6.78 30.6319 6.8C30.4519 6.84 30.2719 6.89 30.0919 6.95C29.9319 6.99 29.7619 7.01 29.5819 7.01C29.3019 7.01 29.0919 6.95 28.9519 6.83C28.8319 6.69 28.7719 6.54 28.7719 6.38C28.7719 6.04 28.9419 5.78 29.2819 5.6C29.4019 5.54 29.5819 5.49 29.8219 5.45C30.0819 5.41 30.3319 5.38 30.5719 5.36C30.8119 5.34 30.9519 5.33 30.9919 5.33C31.8719 5.33 32.6019 5.54 33.1819 5.96C33.7619 6.36 34.2019 6.88 34.5019 7.52C34.8019 8.16 34.9519 8.85 34.9519 9.59C34.9519 10.45 34.7419 11.29 34.3219 12.11C33.9219 12.91 33.2919 13.53 32.4319 13.97C32.0319 14.17 31.6019 14.32 31.1419 14.42C30.7019 14.52 30.2519 14.57 29.7919 14.57C29.6319 14.57 29.4719 14.57 29.3119 14.57C29.1519 14.55 28.9919 14.53 28.8319 14.51C27.7119 14.33 26.7519 13.93 25.9519 13.31C25.1519 12.69 24.5419 11.92 24.1219 11C23.7219 10.06 23.5219 9.05 23.5219 7.97C23.5219 6.59 23.8319 5.3 24.4519 4.1C25.0719 2.88 25.9919 1.94 27.2119 1.28C27.6719 1.02 28.1619 0.829999 28.6819 0.709999C29.2219 0.589999 29.7619 0.53 30.3019 0.53C31.7219 0.53 32.9619 0.819999 34.0219 1.4C35.0819 1.98 35.9519 2.78 36.6319 3.8C37.3319 4.8 37.8119 5.93 38.0719 7.19C38.5719 6.11 39.1519 5.09 39.8119 4.13C40.4919 3.17 41.2719 2.39 42.1519 1.79C43.0319 1.19 44.0119 0.889999 45.0919 0.889999C46.1519 0.889999 47.0519 1.1 47.7919 1.52C48.5519 1.94 49.1719 2.51 49.6519 3.23C50.1319 3.95 50.4819 4.75 50.7019 5.63C50.9419 6.51 51.0619 7.42 51.0619 8.36C51.0619 9 51.0319 9.64 50.9719 10.28C50.9319 10.92 50.8719 11.56 50.7919 12.2C50.6919 13.22 50.5719 14.24 50.4319 15.26C50.2919 16.26 50.1619 17.27 50.0419 18.29C49.9819 18.87 49.9219 19.47 49.8619 20.09C49.8019 20.69 49.7719 21.28 49.7719 21.86C49.7719 21.98 49.7919 22.2 49.8319 22.52C49.8919 22.82 49.9819 23.1 50.1019 23.36C50.2419 23.64 50.4319 23.78 50.6719 23.78C50.7719 23.78 50.9219 23.79 51.1219 23.81C51.3219 23.83 51.4619 23.89 51.5419 23.99C51.6819 24.13 51.7519 24.28 51.7519 24.44C51.7519 24.6 51.6919 24.74 51.5719 24.86C51.4719 25 51.3519 25.1 51.2119 25.16C51.0919 25.22 50.9719 25.25 50.8519 25.25ZM36.8419 22.16C36.9419 22.16 37.0019 22.05 37.0219 21.83C37.0419 21.59 37.0619 21.34 37.0819 21.08C37.1219 20.76 37.1419 20.46 37.1419 20.18C37.1619 19.88 37.1719 19.69 37.1719 19.61C37.1919 19.19 37.2019 18.77 37.2019 18.35C37.2219 17.93 37.2319 17.5 37.2319 17.06C37.2319 16.74 37.2219 16.43 37.2019 16.13C37.2019 15.81 37.2019 15.49 37.2019 15.17C37.1219 15.57 37.0319 16.08 36.9319 16.7C36.8319 17.32 36.7419 17.97 36.6619 18.65C36.5819 19.33 36.5419 19.97 36.5419 20.57C36.5419 21.03 36.5719 21.43 36.6319 21.77C36.6519 21.81 36.6819 21.89 36.7219 22.01C36.7619 22.11 36.8019 22.16 36.8419 22.16Z" fill="black"/>
</svg>
