<svg width="43" height="26" viewBox="0 0 43 26" fill="none" xmlns="http://www.w3.org/2000/svg">
<path d="M9.69 25.45C7.83 25.45 6.22 25.05 4.86 24.25C3.52 23.43 2.48 22.33 1.74 20.95C1.02 19.57 0.66 18.05 0.66 16.39V15.76H1.56V16.39C1.56 17.89 1.88 19.26 2.52 20.5C3.18 21.74 4.11 22.73 5.31 23.47C6.53 24.19 7.99 24.55 9.69 24.55C11.39 24.55 12.84 24.19 14.04 23.47C15.26 22.73 16.19 21.74 16.83 20.5C17.49 19.26 17.82 17.89 17.82 16.39V0.879999H18.72V16.39C18.72 18.05 18.35 19.57 17.61 20.95C16.89 22.33 15.86 23.43 14.52 24.25C13.18 25.05 11.57 25.45 9.69 25.45ZM9.69 21.49C8.55 21.49 7.6 21.26 6.84 20.8C6.1 20.34 5.54 19.73 5.16 18.97C4.8 18.19 4.62 17.33 4.62 16.39V15.76H5.52V16.39C5.52 17.55 5.85 18.54 6.51 19.36C7.17 20.18 8.23 20.59 9.69 20.59C11.15 20.59 12.21 20.18 12.87 19.36C13.53 18.54 13.86 17.55 13.86 16.39V0.879999H14.76V16.39C14.76 17.33 14.57 18.19 14.19 18.97C13.83 19.73 13.27 20.34 12.51 20.8C11.77 21.26 10.83 21.49 9.69 21.49ZM9.69 23.47C8.19 23.47 6.91 23.15 5.85 22.51C4.81 21.87 4.01 21.02 3.45 19.96C2.91 18.88 2.64 17.69 2.64 16.39V15.76H3.54V16.39C3.54 17.53 3.77 18.57 4.23 19.51C4.71 20.43 5.41 21.17 6.33 21.73C7.25 22.29 8.37 22.57 9.69 22.57C11.03 22.57 12.15 22.29 13.05 21.73C13.97 21.17 14.66 20.43 15.12 19.51C15.6 18.57 15.84 17.53 15.84 16.39V0.879999H16.74V16.39C16.74 17.69 16.46 18.88 15.9 19.96C15.36 21.02 14.56 21.87 13.5 22.51C12.46 23.15 11.19 23.47 9.69 23.47ZM41.6948 25V0.879999H42.5948V25H41.6948ZM37.7348 25V0.879999H38.6348V25H37.7348ZM39.7148 25V0.879999H40.6148V25H39.7148ZM25.6748 25V0.879999H26.5748V25H25.6748ZM21.7148 25V0.879999H22.6148V25H21.7148ZM23.6948 25V0.879999H24.5948V25H23.6948ZM36.6548 16.69L27.6548 3.76V2.17L36.6548 15.1V16.69ZM36.6548 20.17L27.6548 7.24V5.65L36.6548 18.58V20.17ZM36.6548 23.65L27.6548 10.72V9.13L36.6548 22.06V23.65Z" fill="black"/>
</svg>
